M48
; DRILL file KiCad 10.0.4 date 2026-08-02T22:19:44
; FORMAT={-:-/ absolute / metric / decimal}
; #@! TF.CreationDate,2026-08-02T22:19:44-05:00
; #@! TF.GenerationSoftware,Kicad,Pcbnew,10.0.4
; #@! TF.FileFunction,Plated,1,2,PTH
FMAT,2
METRIC
; #@! TA.AperFunction,Plated,PTH,ComponentDrill
T1C1.000
%
G90
G05
T1
X104.71Y-79.32
X104.71Y-81.86
X104.71Y-84.4
X104.71Y-86.94
X104.71Y-89.48
X104.71Y-92.02
X104.71Y-94.56
X104.71Y-97.1
X104.71Y-99.64
X104.71Y-102.18
X104.71Y-104.72
X104.71Y-107.26
X104.71Y-109.8
X104.71Y-112.34
X104.71Y-114.88
X130.25Y-79.32
X130.25Y-81.86
X130.25Y-84.4
X130.25Y-86.94
X130.25Y-89.48
X130.25Y-92.02
X130.25Y-94.56
X130.25Y-97.1
X130.25Y-99.64
X130.25Y-102.18
X130.25Y-104.72
X130.25Y-107.26
X130.25Y-109.8
X130.25Y-112.34
X130.25Y-114.88
X136.24Y-95.25
X136.24Y-97.79
X136.24Y-100.33
X136.36Y-79.11
X136.36Y-81.65
X136.36Y-84.19
X136.86Y-112.25
X140.83Y-95.25
X140.83Y-97.79
X140.83Y-100.33
X140.95Y-79.11
X140.95Y-81.65
X140.95Y-84.19
X141.86Y-112.25
X145.42Y-95.25
X145.42Y-97.79
X145.42Y-100.33
X145.54Y-79.11
X145.54Y-81.65
X145.54Y-84.19
X150.01Y-95.25
X150.01Y-97.79
X150.01Y-100.33
X150.13Y-79.11
X150.13Y-81.65
X150.13Y-84.19
X154.6Y-95.25
X154.6Y-97.79
X154.6Y-100.33
X154.72Y-79.11
X154.72Y-81.65
X154.72Y-84.19
T1
X148.45Y-113.25G85X148.45Y-111.25
G05
X152.45Y-107.55G85X150.45Y-107.55
G05
X154.45Y-113.25G85X154.45Y-111.25
G05
M30
